<svg width="26" height="26" viewBox="0 0 26 26" fill="none" xmlns="http://www.w3.org/2000/svg">
<path d="M6.41462 20.0737C5.54755 19.2828 5.42423 18.9965 4.54026 18.1253C4.19056 17.7802 3.47385 17.7703 3.12077 18.1178C2.36984 18.8604 1.01834 20.1794 0.328235 20.8608C-0.091996 21.277 -0.117759 21.8706 0.303317 22.2856L3.10979 25.0489C3.4899 25.4235 4.18803 25.4327 4.56138 25.0489C5.03947 24.5574 5.30006 24.2764 6.01424 23.573C7.0701 22.5324 9.30387 22.7705 10.2064 23.573C10.8315 24.1286 11.4021 25.3066 13.1062 25.3066C14.7407 25.3066 16.3807 24.0812 16.3807 22.209C16.3807 19.737 14.2132 19.8751 14.2132 17.2558C14.2132 15.1746 15.7974 14.1241 17.4614 14.1241C19.9533 14.1241 20.0411 16.2294 22.3826 16.2294C24.0272 16.2294 25.5244 15.0639 25.5244 13.0206C25.5244 11.5084 24.5196 10.7788 24.2679 10.5511C23.0697 9.46432 23.1897 6.91239 24.379 5.73861C25.048 5.07763 25.4974 4.12987 25.4974 3.13757C25.4974 1.59001 24.1987 0 22.2229 0C20.2079 0 18.9134 1.61082 18.9134 3.09886C18.9134 4.5615 19.5132 5.10843 20.0293 5.72446C20.4711 6.25141 20.8803 6.85204 20.8803 8.18273C20.8803 10.323 19.1094 11.471 17.4635 11.471C15.5322 11.471 14.2115 10.0558 14.2115 8.21603C14.2115 6.75547 15.0984 5.83976 16.194 4.75214C16.4521 4.49687 16.597 4.1512 16.597 3.79085C16.597 3.43049 16.4521 3.08482 16.194 2.82956L13.9492 0.616442C13.5915 0.263476 13.1045 0.0112385 12.5977 0.0112385H4.07358C3.55283 0.0112385 3.05362 0.270552 2.68533 0.632259L0.33626 2.94735C0.126041 3.15465 0.00795231 3.43574 0.00795231 3.72883C0.00795231 4.02191 0.126041 4.303 0.33626 4.51031L0.348508 4.52238L2.20597 6.28804C3.05868 7.12883 3.07304 8.86619 2.23723 9.6895C1.90358 10.0183 1.29751 10.4358 0.80126 10.9586C-0.165483 11.9813 -0.339066 14.0966 0.970198 15.389C2.29044 16.6897 4.36837 16.4446 5.50025 15.3286C6.11518 14.723 6.55611 14.0799 8.30461 14.0799C10.2385 14.0799 11.6255 15.7719 11.6255 17.2375C11.6255 19.163 10.116 20.584 8.33122 20.584C7.8206 20.5873 6.93622 20.5494 6.41462 20.0737ZM8.32995 11.5059C6.27018 11.5059 5.02385 9.89179 5.02385 8.22685C5.02385 6.6256 6.26807 4.99231 8.32995 4.99231C10.3994 4.99231 11.6394 6.69886 11.6394 8.24226C11.6394 9.88846 10.3876 11.5076 8.32995 11.5076V11.5059Z" fill="#FF6936"/>
</svg>
