<svg width="92" height="46" viewBox="0 0 92 46" fill="none" xmlns="http://www.w3.org/2000/svg">
<path d="M51.7561 31.9811C51.3019 32.0051 50.8528 31.8766 50.4801 31.6161C50.336 31.5236 50.2169 31.3971 50.1333 31.2477C50.0497 31.0983 50.0041 30.9307 50.0005 30.7595V14.2398C49.9944 14.0469 50.0434 13.8562 50.1417 13.6901C50.2399 13.524 50.3835 13.3893 50.5555 13.3018C50.9252 13.0994 51.3407 12.9955 51.7621 13.0002H57.0498C57.8907 12.9977 58.7267 13.1291 59.5263 13.3892C60.301 13.6394 60.9781 14.1256 61.4628 14.7797C61.9605 15.4463 62.2109 16.3964 62.2109 17.624C62.2446 18.5289 62.0452 19.4273 61.6317 20.233C61.2748 20.8906 60.7061 21.4082 60.018 21.7019C60.5221 21.8774 60.9932 22.1364 61.4115 22.468C61.8231 22.8131 62.1415 23.2559 62.3376 23.7559C62.5875 24.4307 62.7023 25.1481 62.6754 25.8672V26.4132C62.6754 27.7825 62.4472 28.8734 61.9907 29.6858C61.5779 30.4596 60.9262 31.0796 60.1326 31.4532C59.3017 31.8276 58.3984 32.0141 57.4872 31.9992L51.7561 31.9811ZM53.8977 20.239H56.6125C56.8337 20.2531 57.0547 20.2074 57.2522 20.1065C57.4496 20.0057 57.6163 19.8535 57.7346 19.6659C57.9687 19.3066 58.0963 18.8883 58.1026 18.4595C58.1027 18.1556 58.0443 17.8545 57.9306 17.5727C57.8335 17.3078 57.6718 17.0714 57.4601 16.885C57.2246 16.7066 56.9348 16.615 56.6396 16.6256H53.9248L53.8977 20.239ZM53.9218 28.3828H56.4345C56.7077 28.3987 56.9811 28.3567 57.2369 28.2595C57.4927 28.1623 57.725 28.0121 57.9186 27.8187C58.2705 27.4427 58.4464 26.8455 58.4464 26.0271V25.6169C58.4464 24.7462 58.2705 24.1349 57.9186 23.7831C57.7193 23.5999 57.4852 23.4588 57.2302 23.3681C56.9753 23.2774 56.7046 23.239 56.4345 23.2552H53.9218V28.3828Z" fill="#FF6936"/>
<path d="M70.5917 31.9989C69.4896 32.0124 68.3958 31.8076 67.3736 31.3965C66.4293 31.009 65.6332 30.3316 65.1004 29.4625C64.5429 28.5709 64.2642 27.386 64.2642 25.9079V19.0879C64.2642 17.6119 64.5429 16.427 65.1004 15.5333C65.6332 14.6642 66.4293 13.9869 67.3736 13.5994C69.4474 12.8002 71.7451 12.8002 73.8189 13.5994C74.7693 13.982 75.5707 14.6602 76.1042 15.5333C76.6617 16.425 76.9414 17.6099 76.9434 19.0879V25.92C76.9434 27.396 76.6637 28.5809 76.1042 29.4746C75.5707 30.3477 74.7693 31.0259 73.8189 31.4085C72.7927 31.8158 71.6959 32.0165 70.5917 31.9989ZM70.7396 28.3841C71.0444 28.4027 71.3497 28.3588 71.6368 28.2552C71.9239 28.1516 72.1867 27.9904 72.4091 27.7816C72.8136 27.378 73.0128 26.7393 73.0128 25.8627V19.1572C73.0128 18.2806 72.8076 17.651 72.4091 17.2353C72.186 17.0276 71.9231 16.8671 71.6362 16.7635C71.3492 16.66 71.0443 16.6155 70.7396 16.6329C70.4363 16.6148 70.1325 16.659 69.8469 16.7626C69.5614 16.8662 69.3001 17.0271 69.0793 17.2353C68.6838 17.639 68.4906 18.2806 68.4906 19.1572V25.8507C68.4906 26.7333 68.6898 27.3569 69.0793 27.7696C69.2991 27.9796 69.5601 28.1421 69.8458 28.2468C70.1315 28.3515 70.4358 28.3962 70.7396 28.3781V28.3841Z" fill="#FF6936"/>
<path d="M81.0735 31.9973C80.6196 32.0208 80.1707 31.8924 79.7979 31.6324C79.6551 31.5388 79.5372 31.412 79.4542 31.2629C79.3712 31.1137 79.3256 30.9467 79.3214 30.776V14.2397C79.3149 14.0468 79.3637 13.856 79.462 13.6899C79.5603 13.5237 79.704 13.3891 79.8763 13.3019C80.2451 13.0978 80.661 12.9938 81.0826 13.0004H86.3632C87.2086 12.9919 88.0498 13.1202 88.8542 13.3803C89.6271 13.6307 90.302 14.1168 90.7843 14.7704C91.2809 15.4398 91.5302 16.3897 91.5322 17.6199C91.5671 18.5257 91.3677 19.4251 90.9532 20.2313C90.5971 20.8881 90.0297 21.4056 89.3428 21.6997C89.8475 21.8751 90.3187 22.1351 90.7361 22.4687C91.1467 22.8138 91.464 23.2565 91.6589 23.7562C91.907 24.4314 92.0217 25.1482 91.9967 25.867V26.4128C91.9967 27.7858 91.7685 28.8773 91.3121 29.6875C90.8986 30.4587 90.2455 31.0747 89.4514 31.4424C88.6224 31.819 87.72 32.0065 86.8095 31.9912L81.0735 31.9973ZM83.2328 20.2373H85.947C86.1682 20.2508 86.3889 20.2047 86.5862 20.104C86.7835 20.0032 86.9502 19.8514 87.0689 19.6644C87.303 19.3051 87.4305 18.8869 87.4368 18.4582C87.437 18.1544 87.3786 17.8534 87.2649 17.5717C87.1642 17.305 86.9971 17.0684 86.7794 16.8842C86.544 16.7058 86.2542 16.6142 85.9591 16.6249H83.2449L83.2328 20.2373ZM83.5344 28.3788H86.0465C86.3197 28.3948 86.5931 28.3528 86.8488 28.2556C87.1045 28.1584 87.3368 28.0083 87.5303 27.8149C87.8822 27.439 88.0581 26.842 88.0581 26.0238V25.6137C88.0581 24.7433 87.8822 24.1322 87.5303 23.7804C87.3311 23.5973 87.0971 23.4562 86.8421 23.3655C86.5872 23.2749 86.3166 23.2365 86.0465 23.2527H83.5344V28.3788Z" fill="#FF6936"/>
<path d="M11.0601 36.4398C9.56576 35.005 9.35228 34.4808 7.82905 32.8992C7.48906 32.5946 7.05494 32.427 6.60585 32.427C6.15677 32.427 5.72264 32.5946 5.38265 32.8992C4.08732 34.2442 1.7592 36.6405 0.567738 37.8776C0.400928 38.0322 0.265143 38.2195 0.168163 38.4286C0.071182 38.6378 0.0149133 38.8648 0.00258507 39.0966C-0.0097432 39.3284 0.022109 39.5605 0.0963172 39.7795C0.170525 39.9985 0.285632 40.2001 0.435035 40.3728L0.521578 40.4657L5.35957 45.4831C5.69804 45.815 6.14601 46 6.61162 46C7.07723 46 7.5252 45.815 7.86367 45.4831C8.68587 44.5844 9.13591 44.0812 10.3678 42.8021C12.191 40.912 16.0366 41.3464 17.5945 42.8021C18.6705 43.8116 19.6543 45.9533 22.594 45.9533C25.4097 45.9533 28.2369 43.7277 28.2369 40.3249C28.2369 35.8317 24.5009 36.0864 24.5009 31.3386C24.5009 27.5583 27.2329 25.6473 30.1005 25.6473C34.3961 25.6473 34.549 29.4724 38.585 29.4724C41.4209 29.4724 44 27.3517 44 23.6433C44 20.8965 42.2691 19.5725 41.8334 19.1502C39.7678 17.1792 39.9756 12.5602 42.0296 10.4125C43.2401 9.1599 43.9316 7.46594 43.9567 5.69165C43.9286 4.16169 43.3196 2.70518 42.2622 1.63924C41.2048 0.573297 39.7847 -0.0157571 38.311 0.000320678C34.8491 0.000320678 32.6075 2.92387 32.6075 5.62875C32.6075 8.28271 33.6403 9.27719 34.5317 10.3975C35.2905 11.353 35.9973 12.4434 35.9973 14.8607C35.9973 18.7548 32.945 20.8516 30.1063 20.8516C26.7771 20.8516 24.5009 18.2755 24.5009 14.9386C24.5009 12.2876 26.0299 10.6221 27.9167 8.64815C28.3617 8.1844 28.6115 7.55645 28.6115 6.90181C28.6115 6.24717 28.3617 5.61922 27.9167 5.15547L24.0509 1.1326C23.442 0.464129 22.6053 0.0695626 21.7199 0.0332707H7.02416C6.11502 0.0687803 5.25588 0.474453 4.63257 1.16255L0.593701 5.35616C0.413577 5.54261 0.270664 5.76413 0.17315 6.00803C0.0756359 6.25193 0.0254403 6.51342 0.0254403 6.7775C0.0254403 7.04158 0.0756359 7.30307 0.17315 7.54697C0.270664 7.79087 0.413577 8.01239 0.593701 8.19883L0.613898 8.2198L3.81038 11.4249C5.28168 12.9526 5.30476 16.1068 3.86519 17.6045C3.28821 18.2036 2.24387 18.9584 1.39283 19.908C-0.27465 21.7652 -0.577565 25.5993 1.68132 27.9537C3.9402 30.3082 7.54056 29.8708 9.49076 27.8459C10.5524 26.7466 11.3111 25.5814 14.3259 25.5814C17.6579 25.5814 20.0495 28.6547 20.0495 31.3146C20.0495 34.8133 17.4531 37.3924 14.3749 37.3924C13.4921 37.3774 11.9747 37.3025 11.0601 36.4398ZM14.4239 20.8336C10.8755 20.8336 8.72337 17.8981 8.72337 14.8757C8.71339 13.3283 9.29543 11.8402 10.3416 10.7382C11.3878 9.63617 12.8125 9.01049 14.3028 8.99862H14.4239C17.9897 8.99862 20.1274 12.0989 20.1274 14.8996C20.1274 17.8771 17.9695 20.8156 14.4239 20.8156V20.8336Z" fill="#FF6936"/>
</svg>
